<?xml version="1.0" encoding="utf-8"?>
<!-- Uploaded to: SVG Repo, www.svgrepo.com, Generator: SVG Repo Mixer Tools -->
<svg width="800px" height="800px" viewBox="0 -0.5 1025 1025" class="icon"  version="1.1" xmlns="http://www.w3.org/2000/svg"><path d="M0.999024 0.999024h1023.000976v1023.000976H0.999024z" fill="#FFFFFF" /><path d="M826.193171 193.810732l-41.959025-11.988293 41.959025-10.989268 11.988292-42.958049 10.989269 42.958049 42.958048 10.989268-42.958048 11.988293-10.989269 41.959024-11.988292-41.959024zM152.850732 844.17561l-32.967805-7.992195 32.967805-6.993171 6.99317-32.967805 7.992196 32.967805 31.96878 6.993171-31.96878 7.992195-7.992196 31.96878-6.99317-31.96878z" fill="#FDCD60" /><path d="M865.155122 246.759024l-14.985366-3.996097 14.985366-2.997073 2.997073-14.985366 2.997073 14.985366 14.985366 2.997073-14.985366 3.996097-2.997073 13.986342-2.997073-13.986342zM126.876098 477.533659l-14.985366-2.997074 14.985366-3.996097 2.997073-13.986342 3.996097 13.986342 13.986342 3.996097-13.986342 2.997074-3.996097 14.985365-2.997073-14.985365z" fill="#FDCD60" /><path d="M189.814634 327.68m-8.991219 0a8.99122 8.99122 0 1 0 17.982439 0 8.99122 8.99122 0 1 0-17.982439 0Z" fill="#5546CB" /><path d="M743.274146 796.222439a24.97561 24.97561 0 1 1 24.97561-24.97561 24.97561 24.97561 0 0 1-24.97561 24.97561z m0-35.964878a9.990244 9.990244 0 1 0 9.990244 9.990244 9.990244 9.990244 0 0 0-9.990244-8.99122z" fill="#5546CB" /><path d="M647.367805 108.893659c-16.983415-16.983415-46.954146-14.985366-66.934634 4.995121l-64.936586 64.936586c-4.995122 4.995122-8.99122 13.986341-11.988292 26.973658l21.978536 21.978537-15.98439 15.98439-25.974634-25.974634a22.977561 22.977561 0 0 0-12.987317 5.994146L112.889756 582.43122c-19.980488 19.980488-21.978537 49.95122-4.995122 67.933658l263.742439 263.742439c6.993171 6.993171 17.982439 10.989268 28.971707 10.989268s27.972683-5.994146 37.962927-16.983414l349.658537-349.658537c5.994146-5.994146 8.99122-13.986341 10.989268-26.973658l-19.980488-19.980488 15.984391-15.98439 18.981463 18.981463c17.982439-5.994146 28.971707-11.988293 35.964878-18.981463l55.945366-55.945366c19.980488-19.980488 21.978537-49.95122 4.995122-67.933659z m103.898536 199.804878l-24.975609 24.975609-13.986342-13.986341 24.97561-24.97561z m-54.946341-54.946342l-24.97561 24.97561-13.986341-13.986342 24.97561-24.975609z m-40.96-40.96l13.986341 13.986342-24.975609 24.975609-13.986342-13.986341z m-54.946341-54.946341l13.986341 13.986341-24.97561 24.97561-13.986341-13.986342z m-20.979513 337.670244c-8.99122 11.988293-20.979512 25.974634-36.963902 40.96s-39.960976 37.962927-48.952195 45.955122l29.970731 102.899512-49.951219 32.967805-45.955122-73.927805-37.962927 27.972683-14.985366 41.959024h-26.973658l-11.988293-38.961951-38.961951-13.986342v-24.975609l56.94439-14.985366 25.974634-26.973659-76.924878-61.939512 36.963903-37.962927 101.900487 36.963903c8.99122-8.99122 27.972683-28.971707 49.95122-47.953171s32.967805-25.974634 46.954146-33.966829 33.966829-12.987317 45.955122-8.99122 10.989268 7.992195 11.988293 14.985366-3.996098 22.977561-16.983415 39.960976z m3.996098-177.826342l-28.971707-28.971707 15.98439-15.98439 28.971707 28.971707z m19.980488-105.896585l24.975609-24.97561 13.986342 13.986341-24.97561 24.97561z m54.946341 180.823414l-28.971707-28.971707 15.98439-15.98439 28.971707 28.971707z m26.973659-98.903414l24.975609-24.97561 13.986342 13.986341-24.97561 24.97561z m47.95317 172.831219l-28.971707-28.971707 15.98439-15.98439 28.971708 28.971707z m6.993171-118.883902l24.97561-24.97561 13.986341 13.986342-24.975609 24.975609z m26.973659 26.973658l24.975609-24.975609 13.986342 13.986341-24.97561 24.97561z m40.96 40.96l-13.986342-13.986341 24.97561-24.97561 13.986341 13.986342z m25.974634 28.971708l-13.986342-13.986342 24.97561-24.97561 13.986342 13.986342z" fill="#FBCE49" /><path d="M925.096585 358.649756L661.354146 94.907317c-24.97561-24.97561-67.933659-22.977561-95.906341 4.995122l-64.936585 64.936585c-6.993171 6.993171-12.987317 17.982439-16.983415 32.967805-11.988293 0.999024-20.979512 4.995122-28.971707 11.988293L98.903415 568.444878c-27.972683 27.972683-29.970732 70.930732-4.995122 95.906342l262.743414 263.742439c10.989268 10.989268 26.973659 16.983415 42.958049 16.983414s37.962927-7.992195 51.949268-21.978536l350.657561-350.657561c8.99122-8.99122 13.986341-20.979512 16.983415-38.961952 21.978537-6.993171 35.964878-14.985366 44.956098-23.976585l55.945365-55.945366c26.973659-26.973659 29.970732-69.931707 4.995122-94.907317z m-18.981463 81.92l-55.945366 55.945366c-6.993171 6.993171-17.982439 12.987317-35.964878 18.981463l-18.981463-18.981463-15.984391 15.98439 19.980488 19.980488c-1.998049 11.988293-4.995122 20.979512-10.989268 26.973659L438.571707 909.112195c-10.989268 9.990244-23.976585 16.983415-37.962927 16.983415s-21.978537-3.996098-28.971707-10.989269L107.894634 649.365854c-16.983415-16.983415-14.985366-47.953171 4.995122-67.933659l357.650732-357.650732a22.977561 22.977561 0 0 1 12.987317-5.994146l25.974634 25.974634 15.98439-15.98439-21.978536-21.978537c2.997073-12.987317 6.993171-21.978537 11.988292-26.973658l64.936586-64.936586c19.980488-19.980488 49.95122-21.978537 66.934634-4.995121l263.742439 263.742439c16.983415 16.983415 14.985366 47.953171-4.995122 67.933658z" fill="#5546CB" /><path d="M704.312195 437.572683l28.971707 28.971707 15.984391-16.983414-28.971708-27.972683-15.98439 15.98439zM554.458537 288.718049l28.971707 28.971707 15.98439-15.98439-27.972683-28.971707-16.983414 15.98439zM629.385366 363.644878l28.971707 27.972683 15.98439-15.98439-28.971707-28.971708-15.98439 16.983415z" fill="#5546CB" /><path d="M575.438049 459.55122c-3.996098-1.998049-21.978537-3.996098-71.929756 38.961951a689.326829 689.326829 0 0 0-52.948293 50.950244l-4.995122 4.995122-100.901463-36.963903-12.987317 12.987317 76.924878 61.939512-45.955122 46.954147-41.959025 10.989268 30.969756 10.989268 9.990244 32.967805 11.988293-32.967805 59.941463-44.956097 45.955122 74.926829 19.980488-13.986341-28.971707-101.900488 4.995122-3.996098s27.972683-22.977561 53.947317-49.951219c44.956098-44.956098 45.955122-58.942439 45.955122-61.939512z" fill="#F97744" /><path d="M583.430244 441.56878c-11.988293-4.995122-25.974634-1.998049-45.955122 8.99122s-28.971707 18.981463-46.954146 33.966829-41.959024 38.961951-49.95122 47.953171l-100.901463-37.962927-36.963903 37.962927 76.924878 61.939512-25.974634 26.973659-56.94439 14.985366v26.973658l38.961951 13.986342 11.988293 38.961951h27.972683l14.985366-41.959025 37.962926-27.972683 45.955122 73.927805 49.95122-32.967805-30.969756-104.89756c8.99122-7.992195 29.970732-25.974634 48.952195-45.955122s27.972683-29.970732 36.963902-40.96 17.982439-28.971707 15.984391-38.961952-4.995122-11.988293-11.988293-14.985366z m-53.947317 79.921952c-25.974634 25.974634-53.947317 48.952195-53.947317 49.951219l-4.995122 3.996098 29.970732 101.900488-19.980488 13.986341-45.955122-74.926829-59.941464 44.956097-11.988292 32.967805-9.990244-32.967805-30.969756-10.989268 41.959024-10.989268 45.955122-46.954147-76.924878-61.939512 12.987317-12.987317 101.900488 36.963903 4.995122-4.995122a689.326829 689.326829 0 0 1 52.948292-50.950244c49.95122-42.958049 66.934634-40.96 71.929757-38.961951-0.999024 2.997073-2.997073 17.982439-47.953171 61.939512z" fill="#5546CB" /><path d="M575.646845 184.612714l25.431165-25.431165 14.128203 14.129202-25.431165 25.430166zM603.510634 210.880062l25.430166-25.431164 14.129202 14.129202-25.431165 25.430165zM630.667114 238.852745l25.431165-25.431165 14.128203 14.129202-25.430166 25.430166zM657.531879 266.532714l25.431165-25.431165 14.128203 14.129202-25.431165 25.430166zM684.689358 293.506373l25.431165-25.431165 14.128203 14.129202-25.431165 25.430166zM712.553147 319.773721l25.431165-25.431165 14.128203 14.129202-25.431165 25.430166zM739.710626 347.746404l25.431165-25.431165 14.128203 14.129202-25.431165 25.430166zM766.575391 375.426373l25.430166-25.431165 14.129202 14.129202-25.431165 25.430166zM794.438181 401.693721l25.431165-25.431165 14.128203 14.129202-25.430166 25.430166zM819.597612 431.49362l25.431165-25.431165 14.128203 14.128203-25.431165 25.431164z" fill="#FFFFFF" /></svg>